<svg width="44" height="44" viewBox="0 0 44 44" fill="none" xmlns="http://www.w3.org/2000/svg">
<path d="M8.41322 32.9973C10.2707 31.5769 12.3467 30.4569 14.6412 29.6375C16.9357 28.818 19.3395 28.4083 21.8525 28.4083C24.3655 28.4083 26.7693 28.818 29.0638 29.6375C31.3584 30.4569 33.4343 31.5769 35.2918 32.9973C36.5665 31.504 37.559 29.8105 38.2692 27.9166C38.9794 26.0227 39.3345 24.0013 39.3345 21.8525C39.3345 17.0085 37.6318 12.8839 34.2265 9.47853C30.8211 6.07318 26.6965 4.3705 21.8525 4.3705C17.0085 4.3705 12.8839 6.07318 9.47853 9.47853C6.07318 12.8839 4.3705 17.0085 4.3705 21.8525C4.3705 24.0013 4.7256 26.0227 5.43581 27.9166C6.14602 29.8105 7.13849 31.504 8.41322 32.9973ZM16.4167 21.8252C14.9417 20.3502 14.2041 18.5382 14.2041 16.3894C14.2041 14.2406 14.9417 12.4286 16.4167 10.9536C17.8917 9.47853 19.7037 8.741 21.8525 8.741C24.0013 8.741 25.8133 9.47853 27.2883 10.9536C28.7634 12.4286 29.5009 14.2406 29.5009 16.3894C29.5009 18.5382 28.7634 20.3502 27.2883 21.8252C25.8133 23.3002 24.0013 24.0378 21.8525 24.0378C19.7037 24.0378 17.8917 23.3002 16.4167 21.8252ZM21.8525 43.705C18.8296 43.705 15.9888 43.1314 13.33 41.9841C10.6713 40.8369 8.35859 39.2799 6.39186 37.3132C4.42513 35.3464 2.86814 33.0337 1.72089 30.375C0.573628 27.7163 0 24.8754 0 21.8525C0 18.8296 0.573628 15.9888 1.72089 13.33C2.86814 10.6713 4.42513 8.35859 6.39186 6.39186C8.35859 4.42513 10.6713 2.86814 13.33 1.72089C15.9888 0.573628 18.8296 0 21.8525 0C24.8754 0 27.7163 0.573628 30.375 1.72089C33.0337 2.86814 35.3464 4.42513 37.3132 6.39186C39.2799 8.35859 40.8369 10.6713 41.9841 13.33C43.1314 15.9888 43.705 18.8296 43.705 21.8525C43.705 24.8754 43.1314 27.7163 41.9841 30.375C40.8369 33.0337 39.2799 35.3464 37.3132 37.3132C35.3464 39.2799 33.0337 40.8369 30.375 41.9841C27.7163 43.1314 24.8754 43.705 21.8525 43.705ZM27.3156 38.4877C29.0274 37.9232 30.5935 37.1128 32.0139 36.0566C30.5935 35.0004 29.0274 34.1901 27.3156 33.6255C25.6039 33.061 23.7828 32.7788 21.8525 32.7788C19.9222 32.7788 18.1012 33.061 16.3894 33.6255C14.6776 34.1901 13.1115 35.0004 11.6911 36.0566C13.1115 37.1128 14.6776 37.9232 16.3894 38.4877C18.1012 39.0523 19.9222 39.3345 21.8525 39.3345C23.7828 39.3345 25.6039 39.0523 27.3156 38.4877ZM24.2017 18.7385C24.8208 18.1194 25.1304 17.3363 25.1304 16.3894C25.1304 15.4424 24.8208 14.6594 24.2017 14.0402C23.5825 13.4211 22.7995 13.1115 21.8525 13.1115C20.9056 13.1115 20.1225 13.4211 19.5034 14.0402C18.8842 14.6594 18.5746 15.4424 18.5746 16.3894C18.5746 17.3363 18.8842 18.1194 19.5034 18.7385C20.1225 19.3577 20.9056 19.6673 21.8525 19.6673C22.7995 19.6673 23.5825 19.3577 24.2017 18.7385Z" fill="#1C1B1F"/>
</svg>
